<svg width="800" height="800" viewBox="0 0 800 800" fill="none" xmlns="http://www.w3.org/2000/svg">
<rect x="3" y="3" width="794" height="794" rx="13" stroke="#F7DF1E" stroke-width="6" stroke-dasharray="8 8"/>
<path d="M460 330C458 330 454 330 452 328L400 274L348 326C344 330 338 330 334 326C330 322 330 316 334 312L394 252C398 248 404 248 408 252L468 312C472 316 472 322 468 326C466 330 462 330 460 330Z" fill="#F7DF1E" stroke="#F7DF1E" stroke-width="20"/>
<path d="M400 440C394 440 390 436 390 430V270C390 264 394 260 400 260C406 260 410 264 410 270V430C410 436 406 440 400 440Z" fill="#F7DF1E" stroke="#F7DF1E" stroke-width="20"/>
<path d="M500 550H300C272 550 250 528 250 500V460C250 454 254 450 260 450C266 450 270 454 270 460V500C270 516 284 530 300 530H500C516 530 530 516 530 500V460C530 454 534 450 540 450C546 450 550 454 550 460V500C550 528 528 550 500 550Z" fill="#F7DF1E" stroke="#F7DF1E" stroke-width="20"/>
</svg>
